<svg width="20" height="20" viewBox="0 0 20 20" fill="none" xmlns="http://www.w3.org/2000/svg">
<mask id="path-2-inside-1" fill="white">
<path d="M12 10C12 9.44772 12.4477 9 13 9H18C19.1046 9 20 9.89543 20 11V15C20 16.1046 19.1046 17 18 17H13C12.4477 17 12 16.5523 12 16V10Z"/>
</mask>
<path d="M12 10C12 9.44772 12.4477 9 13 9H18C19.1046 9 20 9.89543 20 11V15C20 16.1046 19.1046 17 18 17H13C12.4477 17 12 16.5523 12 16V10Z" fill="white" stroke="black" stroke-width="4" mask="url(#path-2-inside-1)"/>
<rect x="7" y="10" width="6" height="6" fill="white" stroke="black" stroke-width="2"/>
<path d="M2 10H7V16H2C1.44772 16 1 15.5523 1 15V11C1 10.4477 1.44772 10 2 10Z" fill="white" stroke="black" stroke-width="2"/>
<path d="M8 4H12C12.5523 4 13 4.44772 13 5V10H7V5C7 4.44772 7.44772 4 8 4Z" fill="white" stroke="black" stroke-width="2"/>
</svg>
